<?xml version="1.0" encoding="utf-8"?>
<!-- Generator: Adobe Illustrator 26.3.1, SVG Export Plug-In . SVG Version: 6.00 Build 0)  -->
<svg version="1.1" id="Layer_1" xmlns="http://www.w3.org/2000/svg" xmlns:xlink="http://www.w3.org/1999/xlink" x="0px" y="0px"
	 width="115.9px" height="14.5px" viewBox="0 0 115.9 14.5" style="enable-background:new 0 0 115.9 14.5;" xml:space="preserve">
<g>
	<g>
		<g>
			<path style="fill:#F3EAE4;" d="M113,7.7H0.9c-0.3,0-0.5-0.2-0.5-0.5s0.2-0.5,0.5-0.5h112c0.3,0,0.5,0.2,0.5,0.5
				S113.3,7.7,113,7.7z"/>
		</g>
		<g>
			<g>
				<path style="fill:#F3EAE4;" d="M106.3,14.1c-0.1,0-0.2,0-0.3-0.1c-0.2-0.2-0.2-0.5-0.1-0.7c1.7-2.1,4-4.6,7-6.1
					c-2.6-1.3-5-3.4-7-6.1c-0.2-0.2-0.1-0.5,0.1-0.7c0.2-0.2,0.5-0.1,0.7,0.1c2.2,2.9,4.8,5.1,7.6,6.2l1.1,0.5l-1.1,0.5
					c-3.3,1.3-5.8,4-7.6,6.2C106.6,14,106.5,14.1,106.3,14.1z"/>
			</g>
		</g>
	</g>
</g>
</svg>
