<?xml version="1.0" encoding="utf-8"?>
<!-- Generator: Adobe Illustrator 26.3.1, SVG Export Plug-In . SVG Version: 6.00 Build 0)  -->
<svg version="1.1" id="Layer_1" xmlns="http://www.w3.org/2000/svg" xmlns:xlink="http://www.w3.org/1999/xlink" x="0px" y="0px"
	 width="30px" height="31.2px" viewBox="0 0 30 31.2" style="enable-background:new 0 0 30 31.2;" xml:space="preserve">
<style type="text/css">
	.st0{fill:#FFFFFF;}
</style>
<g>
	<g>
		<path class="st0" d="M26.4,31.2c-7.6,0-15.2,0-22.8,0c0,0,0,0-0.1,0c-2.3-0.5-3.5-2-3.6-4.3c0-6.7,0-13.4,0-20.1
			C0,6.4,0,6,0.1,5.7c0.4-2,2-3.4,4.1-3.4c0.5,0,1,0,1.6,0c0-0.4,0-0.7,0-1.1C5.8,0.5,6.3,0,6.9,0c0.7,0,1.1,0.5,1.1,1.3
			c0,0.3,0,0.7,0,1c4.6,0,9.2,0,13.9,0c0-0.1,0-0.2,0-0.3c0-0.3,0-0.5,0-0.8C22,0.5,22.4,0,23.1,0c0.6,0,1.2,0.5,1.2,1.1
			c0,0.4,0,0.8,0,1.2c0.6,0,1.1,0,1.7,0c0.7,0,1.3,0.2,1.9,0.5C29.3,3.7,30,4.9,30,6.6c0,4.2,0,8.3,0,12.5c0,2.6,0,5.2,0,7.8
			c0,2-1.2,3.6-3,4.1C26.8,31.1,26.6,31.1,26.4,31.2z M5.8,4.6c-0.5,0-1,0-1.4,0c-1.3,0-2,0.7-2,2c0,6.7,0,13.5,0,20.2
			c0,1.3,0.7,2,2,2c5.1,0,10.3,0,15.4,0c2.1,0,4.1,0,6.2,0c0.9,0,1.6-0.5,1.8-1.3c0.1-0.2,0.1-0.5,0.1-0.7c0-6.7,0-13.4,0-20.2
			c0-0.2,0-0.3,0-0.5c-0.1-0.8-0.6-1.3-1.3-1.5c-0.7-0.1-1.4-0.1-2.1-0.1c0,0.4,0,0.7,0,1.1c0,0.7-0.5,1.3-1.2,1.3
			c-0.7,0-1.1-0.5-1.1-1.3c0-0.3,0-0.7,0-1c-4.6,0-9.3,0-13.9,0c0,0.4,0,0.7,0,1.1c0,0.7-0.5,1.2-1.2,1.2c-0.6,0-1.1-0.5-1.2-1.2
			C5.8,5.4,5.8,5,5.8,4.6z"/>
		<path class="st0" d="M8.4,24.8c-0.8,0-1.4-0.6-1.5-1.4c0-0.8,0.6-1.5,1.4-1.5c0.8,0,1.5,0.7,1.5,1.5C9.8,24.2,9.2,24.8,8.4,24.8z"
			/>
		<path class="st0" d="M8.4,16.2c0.8,0,1.4,0.6,1.4,1.4c0,0.8-0.6,1.5-1.4,1.5c-0.8,0-1.5-0.7-1.4-1.5C6.9,16.8,7.6,16.2,8.4,16.2z"
			/>
		<path class="st0" d="M21.1,10.4c0.8,0,1.4,0.6,1.4,1.5c0,0.8-0.6,1.4-1.4,1.4c-0.8,0-1.4-0.7-1.4-1.5C19.7,11,20.3,10.4,21.1,10.4
			z"/>
		<path class="st0" d="M13.3,23.4c0-0.8,0.7-1.5,1.5-1.4c0.8,0,1.4,0.7,1.4,1.4c0,0.8-0.7,1.5-1.5,1.4
			C13.9,24.8,13.3,24.2,13.3,23.4z"/>
		<path class="st0" d="M22.5,17.6c0,0.8-0.6,1.5-1.4,1.5c-0.8,0-1.4-0.6-1.4-1.4c0-0.8,0.6-1.5,1.4-1.4
			C21.9,16.2,22.5,16.8,22.5,17.6z"/>
		<path class="st0" d="M8.4,13.3c-0.8,0-1.5-0.7-1.5-1.4c0-0.8,0.6-1.4,1.4-1.4c0.8,0,1.5,0.6,1.5,1.4C9.8,12.6,9.2,13.3,8.4,13.3z"
			/>
		<path class="st0" d="M22.5,23.4c0,0.8-0.6,1.5-1.4,1.5c-0.8,0-1.4-0.6-1.4-1.4c0-0.8,0.6-1.5,1.4-1.5
			C21.9,21.9,22.5,22.6,22.5,23.4z"/>
		<path class="st0" d="M13.3,17.6c0-0.8,0.6-1.5,1.4-1.5c0.8,0,1.4,0.6,1.4,1.4c0,0.8-0.7,1.5-1.4,1.5
			C13.9,19.1,13.3,18.4,13.3,17.6z"/>
		<path class="st0" d="M14.7,10.4c0.8,0,1.5,0.6,1.5,1.4c0,0.8-0.6,1.4-1.4,1.4c-0.8,0-1.5-0.6-1.5-1.4C13.3,11,13.9,10.4,14.7,10.4
			z"/>
	</g>
</g>
</svg>
