<?xml version="1.0" encoding="utf-8"?>
<!-- Generator: Adobe Illustrator 26.3.1, SVG Export Plug-In . SVG Version: 6.00 Build 0)  -->
<svg version="1.1" id="Layer_1" xmlns="http://www.w3.org/2000/svg" xmlns:xlink="http://www.w3.org/1999/xlink" x="0px" y="0px"
	 width="755.7px" height="434.6px" viewBox="0 0 755.7 434.6" style="enable-background:new 0 0 755.7 434.6;" xml:space="preserve"
	>
<style type="text/css">
	.st0{fill:#16823A;}
	.st1{clip-path:url(#SVGID_00000174585098050149333130000012000507663906622080_);fill:#1B9D46;}
</style>
<rect x="-3" y="-1.7" class="st0" width="761.7" height="438.1"/>
<g>
	<defs>
		<rect id="SVGID_1_" x="-1.3" y="-2.6" width="755.7" height="439.2"/>
	</defs>
	<clipPath id="SVGID_00000080893236606822481950000005081742024143460541_">
		<use xlink:href="#SVGID_1_"  style="overflow:visible;"/>
	</clipPath>
	<path style="clip-path:url(#SVGID_00000080893236606822481950000005081742024143460541_);fill:#1B9D46;" d="M185.7,165.4
		c0,12.1,0,24.2,0,36.2c0,8.6-1,17.5,0.6,25.8c1.3,6.2,6.2,11.7,9.5,17.5c2.8-6.1,7.9-12.2,8.1-18.4c1.5-33.6,1.1-67.3,2.8-100.9
		c0.9-18.4,3.5-36.9,7.4-55c6.8-31.6,26.5-48.6,57.9-52.2c14.8-1.7,25.8,5.4,35.8,15.6c25.3,25.8,50.7,51.6,76.2,77.1
		c4.8,4.8,10.2,9.3,16,12.5c45.7,25,80.6,61.6,109.8,104.8c11,16.2,24.8,30.4,36.4,46.2c11.3,15.3,22.2,31.1,31.9,47.5
		c14.8,25,26.8,51.7,42.8,75.9c18,27.2,21.6,55.4,14.3,86.2c-6.1,25.9-21.4,44.2-44.4,56.6c-27,14.5-56.4,19.4-86,23.6
		c-49.2,7-98.5,12.7-147.4,21.4c-49.3,8.9-92.7,32.6-127.8,68.6c-27.1,27.8-40,64.9-43,103.9c-3.4,44.2-3.7,88.6-5.5,132.9
		c-0.5,12.5-1.4,25-3.1,37.4c-0.4,3.3-4.6,6.1-7,9.1c-1.8-3-4-5.7-5.4-8.9c-12.3-28.7-4.2-58.7-4.2-88c0.1-38.6-3.4-76.5-11.1-114.2
		c-5.3-26.1-22-45.3-37.5-64.9c-35.6-45-83.6-69.6-137-84.7c-56.7-16-113.4-32-170.1-48c-19-5.4-38.8-8.7-56.8-16.4
		c-34.3-14.7-52.1-47.9-45.3-83.2c2.1-10.9,8.8-21.1,14.5-31c9.5-16.6,19.2-33.2,30-49c10.9-16.1,22-32.4,35.2-46.5
		c39.4-41.9,81.3-81.9,104.9-136.3c18-41.5,48.6-65.7,91.2-75.9c39.9-9.6,74.6-31.2,108.6-53.3c30.2-19.6,65.6-13.3,81.8,19.4
		c7.2,14.6,11,31.6,13.3,48c2.8,20,2.5,40.4,3.6,60.7C186.4,165.4,186.1,165.4,185.7,165.4"/>
</g>
</svg>
