<?xml version="1.0" encoding="utf-8"?>
<!-- Generator: Adobe Illustrator 26.3.1, SVG Export Plug-In . SVG Version: 6.00 Build 0)  -->
<svg version="1.1" id="Layer_1" xmlns="http://www.w3.org/2000/svg" xmlns:xlink="http://www.w3.org/1999/xlink" x="0px" y="0px"
	 width="388.6px" height="259px" viewBox="0 0 388.6 259" style="enable-background:new 0 0 388.6 259;" xml:space="preserve">
<rect x="-2.3" y="-1.5" style="fill:#3D8042;" width="393.2" height="261.9"/>
<g>
	<defs>
		<rect id="SVGID_1_" x="-1.6" y="-1.2" width="392.1" height="261.7"/>
	</defs>
	<clipPath id="SVGID_00000002358700577139930430000003992122018758144160_">
		<use xlink:href="#SVGID_1_"  style="overflow:visible;"/>
	</clipPath>
	
		<path style="clip-path:url(#SVGID_00000002358700577139930430000003992122018758144160_);fill:none;stroke:#1B9D46;stroke-miterlimit:10;" d="
		M290.8,197.7c0,6.9,0,13.7,0,20.5c0,4.9-0.6,9.9,0.4,14.6c0.7,3.5,3.5,6.6,5.4,9.9c1.6-3.5,4.5-6.9,4.6-10.4
		c0.9-19.1,0.6-38.2,1.6-57.2c0.5-10.4,2-20.9,4.2-31.2c3.9-17.9,15-27.5,32.9-29.6c8.4-1,14.6,3.1,20.3,8.8
		c14.4,14.6,28.7,29.3,43.2,43.7c2.7,2.7,5.8,5.3,9.1,7.1c25.9,14.2,45.7,34.9,62.2,59.4c6.2,9.2,14,17.2,20.6,26.2
		c6.4,8.7,12.6,17.6,18.1,26.9c8.4,14.2,15.2,29.3,24.3,43c10.2,15.4,12.2,31.4,8.1,48.9c-3.5,14.7-12.2,25.1-25.2,32.1
		c-15.3,8.2-32,11-48.8,13.4c-27.9,3.9-55.9,7.2-83.6,12.2c-27.9,5-52.6,18.5-72.5,38.9c-15.4,15.8-22.7,36.8-24.4,58.9
		c-1.9,25.1-2.1,50.3-3.1,75.4c-0.3,7.1-0.8,14.2-1.7,21.2c-0.3,1.9-2.6,3.4-4,5.1c-1-1.7-2.3-3.3-3.1-5c-7-16.3-2.4-33.3-2.4-49.9
		c0-21.9-1.9-43.4-6.3-64.8c-3-14.8-12.5-25.7-21.3-36.8c-20.2-25.5-47.4-39.5-77.7-48c-32.1-9.1-64.3-18.1-96.5-27.2
		c-10.8-3-22-5-32.2-9.3c-19.5-8.3-29.5-27.1-25.7-47.2c1.2-6.2,5-11.9,8.2-17.6c5.4-9.4,10.9-18.8,17-27.8
		c6.2-9.1,12.5-18.4,20-26.4c22.4-23.8,46.1-46.4,59.5-77.3c10.2-23.6,27.5-37.3,51.7-43.1c22.6-5.4,42.3-17.7,61.6-30.2
		c17.1-11.1,37.2-7.6,46.4,11c4.1,8.3,6.2,17.9,7.5,27.2c1.6,11.3,0.8,19,1.4,30.5C290.5,193.8,291,197.7,290.8,197.7"/>
	
		<path style="clip-path:url(#SVGID_00000002358700577139930430000003992122018758144160_);fill:none;stroke:#1B9D46;stroke-miterlimit:10;" d="
		M-10.2-154.9c0,6.9,0,13.7,0,20.5c0,4.9-0.6,9.9,0.4,14.6c0.7,3.5,3.5,6.6,5.4,9.9c1.6-3.5,4.5-6.9,4.6-10.4
		c0.9-19.1,0.6-38.2,1.6-57.2c0.5-10.4,2-20.9,4.2-31.2c3.9-17.9,15-27.5,32.9-29.6c8.4-1,14.6,3.1,20.3,8.8
		c14.4,14.6,28.7,29.3,43.2,43.7c2.7,2.7,5.8,5.3,9.1,7.1c25.9,14.2,45.7,34.9,62.2,59.4c6.2,9.2,14,17.2,20.6,26.2
		c6.4,8.7,12.6,17.6,18.1,26.9c8.4,14.2,15.2,29.3,24.3,43c10.2,15.4,12.2,31.4,8.1,48.9c-3.5,14.7-12.2,25.1-25.2,32.1
		c-15.3,8.2-32,11-48.8,13.4c-27.9,3.9-55.9,7.2-83.6,12.2c-27.9,5-52.6,18.5-72.5,38.9C-0.7,138.1-8,159.2-9.7,181.3
		c-1.9,25.1-2.1,50.3-3.1,75.4c-0.3,7.1-0.8,14.2-1.7,21.2c-0.3,1.9-2.6,3.4-4,5.1c-1-1.7-2.3-3.3-3.1-5c-7-16.3-2.4-33.3-2.4-49.9
		c0-21.9-1.9-43.4-6.3-64.8c-3-14.8-12.5-25.7-21.3-36.8C-71.7,101-99,87-129.2,78.4c-32.1-9.1-64.3-18.1-96.5-27.2
		c-10.8-3-22-5-32.2-9.3c-19.5-8.3-29.5-27.1-25.7-47.2c1.2-6.2,5-11.9,8.2-17.6c5.4-9.4,10.9-18.8,17-27.8
		c6.2-9.1,12.5-18.4,20-26.4c22.4-23.8,46.1-46.4,59.5-77.3c10.2-23.6,27.5-37.3,51.7-43.1c22.6-5.4,42.3-17.7,61.6-30.2
		c17.1-11.1,37.2-7.6,46.4,11c4.1,8.3,6.2,17.9,7.5,27.2c1.6,11.3,1.4,22.9,2,34.4C-9.8-154.9-10-154.9-10.2-154.9"/>
</g>
</svg>
