<?xml version="1.0" encoding="utf-8"?>
<!-- Generator: Adobe Illustrator 26.3.1, SVG Export Plug-In . SVG Version: 6.00 Build 0)  -->
<svg version="1.1" id="Layer_1" xmlns="http://www.w3.org/2000/svg" xmlns:xlink="http://www.w3.org/1999/xlink" x="0px" y="0px"
	 width="417.5px" height="265.5px" viewBox="0 0 417.5 265.5" style="enable-background:new 0 0 417.5 265.5;" xml:space="preserve"
	>
<rect x="-1" y="-0.6" style="fill:#FAF8F5;" width="419.5" height="266.7"/>
<rect x="-0.5" y="-0.5" style="fill:none;" width="418.7" height="266.3"/>
<g>
	<g>
		<defs>
			<rect id="SVGID_1_" x="-1.3" y="-0.5" width="382" height="265.9"/>
		</defs>
		<clipPath id="SVGID_00000072959585287069445360000004660939459279807420_">
			<use xlink:href="#SVGID_1_"  style="overflow:visible;"/>
		</clipPath>
		<g style="clip-path:url(#SVGID_00000072959585287069445360000004660939459279807420_);">
			<g>
				<path style="fill:#DBDAD9;" d="M383.4,303.7l-0.4-0.6c-0.3-0.5-0.7-1-1-1.5c-0.7-1.1-1.5-2.3-2-3.5c-5-11.7-4-23.8-3.1-35.6
					c0.4-4.6,0.7-9.3,0.7-13.9c0-22.3-2-43.2-6.2-63.9c-2.7-13.3-10.9-23.6-18.8-33.5c-0.7-0.9-1.4-1.8-2.1-2.7
					c-17.9-22.6-42.2-37.6-76.6-47.3C250,94.4,226.2,87.7,202.3,81l-23.7-6.7c-3.3-0.9-6.7-1.8-10-2.6c-7.3-1.8-14.9-3.7-21.8-6.6
					c-19.5-8.4-29.6-26.9-25.7-47.2c1-5.2,3.9-10.1,6.7-14.9c0.5-0.9,1-1.7,1.5-2.6c6-10.5,11.1-19.1,16.8-27.5l0.4-0.6
					c5.9-8.7,12.1-17.8,19.3-25.5c2.7-2.8,5.4-5.7,8.1-8.5c19.2-20.2,39.1-41,50.7-67.7c9.9-22.9,26.8-36.9,51.5-42.8
					c21.8-5.2,40.4-16.6,60.7-29.8c9-5.8,18.8-7.7,27.7-5.3c8.2,2.2,14.7,7.9,18.9,16.4c3.5,7,5.9,15.6,7.5,27
					c1,7.1,1.1,12.4,1.1,18c0,3.3,0.1,6.8,0.3,10.9v0.5h-0.1c0,0.5,0.1,1.4,0.1,2.1c0.1,1.9,0.1,2.5,0,2.7l0.1,2.5
					c0,3.1,0,5.6,0,8.1c0,3,0,5.9,0,9.6c0,1.4,0,2.8-0.1,4.2c-0.1,3.4-0.2,6.9,0.4,10.2c0.5,2.3,1.9,4.5,3.4,6.7
					c0.5,0.7,1,1.5,1.4,2.2c0.4-0.8,0.9-1.6,1.4-2.4c1.3-2.2,2.6-4.6,2.7-6.8c0.4-9,0.6-18.1,0.7-27c0.2-9.7,0.4-19.7,0.9-29.6
					c0.5-10.1,1.9-20.5,4.1-30.9c3.8-17.6,14.8-27.6,32.9-29.7c9.4-1.1,15.9,4.2,20.5,8.9c15.9,16.2,29.2,29.7,42.7,43.2
					c3,3,6,5.3,8.9,6.9c23.4,12.8,43.6,32.1,61.7,58.9c3.4,5.1,7.5,9.9,11.3,14.6c3,3.6,6.2,7.4,9,11.3
					c7.4,10.1,13.1,18.6,17.9,26.7c3.4,5.7,6.5,11.7,9.6,17.4c4.5,8.4,9.1,17.1,14.4,25.1c9.7,14.7,12.4,30.6,8.1,48.7
					c-3.3,14.1-11.8,24.8-25.1,32c-14.9,8-30.8,10.8-48.4,13.3c-7.9,1.1-16,2.2-23.8,3.3c-19.3,2.6-39.3,5.3-58.8,8.8
					c-27,4.9-51.7,18.1-71.4,38.3c-13.8,14.2-22.1,34.3-24,57.9c-1.3,16.5-1.8,33.3-2.3,49.5c-0.2,8.2-0.5,16.6-0.8,25
					c-0.3,8.3-0.9,15-1.7,21c-0.2,1.4-1.4,2.6-2.6,3.8c-0.5,0.5-1,1-1.4,1.5L383.4,303.7z M356.6-207.5c-6.4,0-13.1,2.1-19.3,6.2
					c-20.4,13.3-39.1,24.7-61,29.9c-24.4,5.8-41,19.7-50.8,42.3c-11.7,26.9-31.6,47.8-50.9,68c-2.7,2.8-5.4,5.7-8.1,8.5
					c-7.2,7.7-13.3,16.7-19.3,25.4l-0.4,0.6c-5.7,8.3-10.8,17-16.8,27.4c-0.5,0.9-1,1.7-1.5,2.6c-2.7,4.7-5.6,9.5-6.5,14.6
					c-3.8,19.8,6.1,37.9,25.1,46.1c6.9,3,14.4,4.8,21.7,6.6c3.3,0.8,6.7,1.7,10.1,2.6l23.7,6.7c23.9,6.7,47.7,13.4,71.6,20.2
					c34.6,9.8,59.1,24.9,77.1,47.6c0.7,0.9,1.4,1.8,2.1,2.7c8,10,16.2,20.3,19,33.9c4.2,20.8,6.3,41.8,6.2,64.1
					c0,4.6-0.4,9.4-0.7,14c-0.9,11.6-1.9,23.7,3,35.1c0.5,1.2,1.2,2.2,2,3.3c0.2,0.3,0.4,0.7,0.7,1c0.3-0.4,0.7-0.7,1.1-1.1
					c1.1-1,2.1-2.1,2.3-3.2c0.8-6,1.4-12.7,1.7-20.9c0.3-8.3,0.6-16.8,0.8-24.9c0.5-16.3,1-33.1,2.3-49.6
					c1.8-23.9,10.2-44.2,24.2-58.6c19.8-20.4,44.7-33.7,71.9-38.6c19.5-3.5,39.5-6.2,58.8-8.8c7.8-1,15.9-2.1,23.8-3.3
					c17.5-2.5,33.3-5.2,48.1-13.2c13.3-7.2,21.3-17.4,24.6-31.4c4.2-17.8,1.6-33.5-8-47.9c-5.3-8-9.9-16.7-14.4-25.1
					c-3.1-5.8-6.2-11.7-9.6-17.4c-4.8-8.1-10.4-16.5-17.8-26.6c-2.8-3.9-6-7.6-9-11.3c-3.9-4.7-7.9-9.5-11.4-14.6
					c-18-26.7-38.1-45.9-61.3-58.6c-3-1.6-6-4-9.1-7.1c-13.5-13.5-26.9-27.1-42.7-43.2c-6.6-6.7-12.7-9.4-19.6-8.6
					c-17.6,2.1-28.4,11.8-32,28.9c-2.2,10.4-3.6,20.7-4.1,30.7c-0.5,9.8-0.7,19.9-0.9,29.6c-0.2,8.8-0.3,18-0.7,27
					c-0.1,2.5-1.5,5-2.9,7.3c-0.6,1.1-1.2,2.1-1.7,3.2l-0.4,0.9l-0.5-0.8c-0.6-1-1.2-2-1.9-2.9c-1.5-2.2-3-4.5-3.5-7
					c-0.7-3.4-0.6-6.9-0.5-10.4c0-1.4,0.1-2.8,0.1-4.1c0-3.7,0-6.6,0-9.6c0-2.5,0-5,0-8.1l-0.1-3.1h0.1c0-0.5-0.1-1.4-0.1-2.1
					c-0.1-1.8-0.1-2.4,0-2.7c-0.2-4.1-0.2-7.5-0.3-10.8c0-5.8-0.1-10.8-1.1-17.9c-1.6-11.3-4-19.8-7.4-26.7
					c-4.1-8.2-10.4-13.7-18.3-15.8C361.7-207.2,359.1-207.5,356.6-207.5z"/>
			</g>
		</g>
	</g>
</g>
</svg>
